<mxfile host="app.diagrams.net" modified="2024-06-16T16:57:55.193Z" agent="Mozilla/5.0 (Macintosh; Intel Mac OS X 10_15_7) AppleWebKit/537.36 (KHTML, like Gecko) Chrome/126.0.0.0 Safari/537.36" version="24.5.4" etag="_Pf8e0eXpwrYEUQxiDKR" type="github">
  <diagram name="Page-1" id="wWoS2yOWbxYqyao1v2vq">
    <mxGraphModel>
      <root>
        <mxCell id="0" />
        <mxCell id="1" parent="0" />
      </root>
    </mxGraphModel>
  </diagram>
</mxfile>
